<svg width="49" height="50" viewBox="0 0 49 50" fill="none" xmlns="http://www.w3.org/2000/svg">
<g id="Frame 5">
<g id="Vector">
<path d="M24.4974 21.0787C24.4974 20.1986 25.2175 19.4785 26.0976 19.4785C26.9777 19.4785 27.6978 20.1986 27.6978 21.0787C27.6978 22.4088 28.7679 23.4789 30.098 23.4789C31.4281 23.4789 32.4982 22.3988 32.4982 21.0687C32.4982 20.1886 33.2183 19.4685 34.0984 19.4685C34.9785 19.4685 35.6986 20.1886 35.6986 21.0687C35.6986 22.3988 36.7687 23.4689 38.0988 23.4689C39.429 23.4689 40.4991 22.3988 40.4991 21.0687C40.4991 20.1886 41.2192 19.4685 42.0993 19.4685C42.9793 19.4685 43.6994 20.1886 43.6994 21.0687L43.6794 31.3597C43.3394 38.3305 37.7488 43.921 30.7781 44.2611C30.7181 44.2611 30.6481 44.2711 30.5881 44.2811H29.2479C23.7273 44.2811 18.4368 42.0908 14.5364 38.1904L5.76546 29.4095C5.1454 28.7895 5.1454 27.7694 5.76546 27.1493C6.38553 26.5292 7.40563 26.5292 8.0257 27.1493L12.3962 31.5197C13.0862 32.2098 14.1163 32.4098 15.0164 32.0398C15.9165 31.6698 16.4966 30.7897 16.4966 29.8196V7.47724C16.4966 6.59715 17.2167 5.87708 18.0967 5.87708C18.9768 5.87708 19.6969 6.58715 19.6969 7.46724V21.0787C19.6969 22.4088 20.767 23.4789 22.0972 23.4789C23.4273 23.4789 24.4974 22.4088 24.4974 21.0787Z" fill="white"/>
<path fill-rule="evenodd" clip-rule="evenodd" d="M26.0976 19.4785C25.2175 19.4785 24.4974 20.1986 24.4974 21.0787C24.4974 22.4088 23.4273 23.4789 22.0972 23.4789C20.767 23.4789 19.6969 22.4088 19.6969 21.0787V7.46724C19.6969 6.58715 18.9768 5.87708 18.0967 5.87708C17.2167 5.87708 16.4966 6.59715 16.4966 7.47724V29.8196C16.4966 30.7897 15.9165 31.6698 15.0164 32.0398C14.1163 32.4098 13.0862 32.2098 12.3962 31.5197L8.0257 27.1493C7.40563 26.5292 6.38553 26.5292 5.76546 27.1493C5.1454 27.7694 5.1454 28.7895 5.76546 29.4095L14.5364 38.1904C18.4368 42.0908 23.7273 44.2811 29.2479 44.2811H30.5881C30.6481 44.2711 30.7181 44.2611 30.7781 44.2611C37.7488 43.921 43.3394 38.3305 43.6794 31.3597L43.6994 21.0687C43.6994 20.1886 42.9793 19.4685 42.0993 19.4685C41.2192 19.4685 40.4991 20.1886 40.4991 21.0687C40.4991 22.3988 39.429 23.4689 38.0988 23.4689C36.7687 23.4689 35.6986 22.3988 35.6986 21.0687C35.6986 20.1886 34.9785 19.4685 34.0984 19.4685C33.2183 19.4685 32.4982 20.1886 32.4982 21.0687C32.4982 22.3988 31.4281 23.4789 30.098 23.4789C28.7679 23.4789 27.6978 22.4088 27.6978 21.0787C27.6978 20.1986 26.9777 19.4785 26.0976 19.4785Z" fill="white"/>
<path d="M46.1764 31.4815L46.1793 31.4231L46.1794 31.3646L46.1994 21.0735V21.0687C46.1994 18.8078 44.36 16.9685 42.0993 16.9685C40.1479 16.9685 38.5105 18.3388 38.0988 20.1676C37.6871 18.3388 36.0497 16.9685 34.0984 16.9685C32.1453 16.9685 30.5067 18.3413 30.0969 20.1726C29.6833 18.3463 28.0471 16.9785 26.0976 16.9785C24.2778 16.9785 22.7312 18.1702 22.1969 19.8141V7.46724C22.1969 5.18607 20.3371 3.37708 18.0967 3.37708C15.8359 3.37708 13.9966 5.21644 13.9966 7.47724V29.5846L9.79347 25.3815C8.19709 23.7852 5.59407 23.7852 3.9977 25.3815L5.74954 27.1334L3.9977 25.3815C2.40166 26.9776 2.40132 29.5798 3.99669 31.1763C3.99702 31.1766 3.99736 31.177 3.9977 31.1773L12.7676 39.9572L12.7686 39.9582C17.1383 44.3279 23.065 46.7811 29.2479 46.7811H30.5881H30.795L30.947 46.7557C39.1807 46.3302 45.7745 39.7215 46.1764 31.4815Z" stroke="black" stroke-width="5"/>
</g>
</g>
</svg>
